<svg height="464pt" viewBox="0 -16 464.00003 464" width="464pt" xmlns="http://www.w3.org/2000/svg"><path d="m464 120c.03125-57.871094-41.265625-107.511719-98.175781-118.007812-56.914063-10.5-113.203125 21.136718-133.824219 75.207031-20.621094-54.070313-76.910156-85.707031-133.824219-75.207031-56.910156 10.496093-98.207031 60.136718-98.175781 118.007812 0 136 165.726562 312 232 312s232-176 232-312zm0 0" fill="#fa507f"/><path d="m176 168c-4.417969 0-8-3.582031-8-8 0-13.253906-10.746094-24-24-24s-24 10.746094-24 24c0 4.417969-3.582031 8-8 8s-8-3.582031-8-8c0-22.089844 17.910156-40 40-40s40 17.910156 40 40c0 4.417969-3.582031 8-8 8zm0 0" fill="#603913"/><g fill="#a21d1f"><path d="m232 280c-26.910156 0-48-14.054688-48-32 0-4.417969 3.582031-8 8-8s8 3.582031 8 8c0 7.554688 13.6875 16 32 16s32-8.445312 32-16c0-4.417969 3.582031-8 8-8s8 3.582031 8 8c0 17.945312-21.089844 32-48 32zm0 0"/><path d="m168 296c-3.445312 0-6.5-2.203125-7.589844-5.46875s.035156-6.863281 2.789063-8.929688c.199219-.144531 20.800781-15.839843 20.800781-33.601562 0-17.597656-20.574219-33.429688-20.800781-33.597656-3.535157-2.652344-4.25-7.667969-1.597657-11.203125 2.648438-3.53125 7.664063-4.25 11.199219-1.597657 1.109375.800782 27.199219 20.597657 27.199219 46.398438s-26.105469 45.601562-27.199219 46.402344c-1.382812 1.039062-3.070312 1.601562-4.800781 1.597656zm0 0"/><path d="m296 296c-1.730469.003906-3.417969-.558594-4.800781-1.597656-1.109375-.800782-27.199219-20.601563-27.199219-46.402344s26.105469-45.597656 27.199219-46.398438c3.535156-2.652343 8.550781-1.933593 11.199219 1.597657 2.652343 3.535156 1.9375 8.550781-1.597657 11.203125-.214843.152344-20.800781 15.847656-20.800781 33.597656 0 17.601562 20.574219 33.433594 20.800781 33.601562 2.753907 2.066407 3.878907 5.664063 2.789063 8.929688s-4.144532 5.46875-7.589844 5.46875zm0 0"/></g><path d="m352 168c-4.417969 0-8-3.582031-8-8 0-13.253906-10.746094-24-24-24s-24 10.746094-24 24c0 4.417969-3.582031 8-8 8s-8-3.582031-8-8c0-22.089844 17.910156-40 40-40s40 17.910156 40 40c0 4.417969-3.582031 8-8 8zm0 0" fill="#603913"/></svg>